<svg xmlns="http://www.w3.org/2000/svg" width="960" height="960" viewBox="0 0 960 960" fill="none">
  <g transform="translate(0.000 334.829) scale(1.170732)">
    <path d="M 745.00 99.00 L 739.00 105.00 L 736.00 113.00 L 736.00 131.00 L 739.00 139.00 L 744.00 144.00 L 751.00 147.00 L 795.00 147.00 L 796.00 148.00 L 796.00 165.00 L 795.00 166.00 L 738.00 166.00 L 738.00 182.00 L 739.00 183.00 L 803.00 183.00 L 811.00 180.00 L 816.00 175.00 L 819.00 168.00 L 819.00 145.00 L 816.00 138.00 L 811.00 133.00 L 807.00 131.00 L 803.00 131.00 L 802.00 130.00 L 760.00 130.00 L 759.00 129.00 L 759.00 115.00 L 760.00 114.00 L 816.00 114.00 L 817.00 113.00 L 817.00 97.00 L 750.00 97.00 Z M 646.00 100.00 L 641.00 105.00 L 639.00 109.00 L 639.00 113.00 L 638.00 114.00 L 638.00 166.00 L 639.00 167.00 L 640.00 173.00 L 642.00 176.00 L 648.00 181.00 L 650.00 181.00 L 654.00 183.00 L 720.00 183.00 L 720.00 166.00 L 662.00 166.00 L 661.00 165.00 L 661.00 115.00 L 663.00 113.00 L 698.00 113.00 L 700.00 115.00 L 700.00 135.00 L 698.00 137.00 L 666.00 137.00 L 679.00 150.00 L 685.00 153.00 L 710.00 153.00 L 714.00 151.00 L 720.00 145.00 L 723.00 137.00 L 723.00 115.00 L 722.00 114.00 L 722.00 111.00 L 720.00 106.00 L 714.00 100.00 L 708.00 97.00 L 652.00 97.00 Z M 562.00 97.00 L 562.00 183.00 L 585.00 183.00 L 585.00 97.00 Z M 499.00 99.00 L 490.00 107.00 L 487.00 112.00 L 487.00 114.00 L 522.00 114.00 L 523.00 115.00 L 523.00 182.00 L 524.00 183.00 L 546.00 183.00 L 546.00 110.00 L 545.00 109.00 L 545.00 107.00 L 539.00 100.00 L 533.00 97.00 L 505.00 97.00 L 504.00 98.00 Z M 434.00 99.00 L 425.00 107.00 L 422.00 112.00 L 422.00 114.00 L 457.00 114.00 L 458.00 115.00 L 458.00 182.00 L 459.00 183.00 L 481.00 183.00 L 482.00 182.00 L 482.00 115.00 L 481.00 114.00 L 481.00 110.00 L 479.00 105.00 L 474.00 100.00 L 468.00 97.00 L 440.00 97.00 L 439.00 98.00 Z M 393.00 97.00 L 393.00 182.00 L 394.00 183.00 L 416.00 183.00 L 417.00 182.00 L 417.00 97.00 Z M 357.00 97.00 L 357.00 221.00 L 380.00 221.00 L 380.00 97.00 Z M 292.00 97.00 L 292.00 172.00 L 294.00 176.00 L 301.00 182.00 L 304.00 182.00 L 305.00 183.00 L 331.00 183.00 L 342.00 179.00 L 348.00 173.00 L 351.00 168.00 L 351.00 166.00 L 316.00 166.00 L 315.00 165.00 L 315.00 97.00 Z M 127.00 100.00 L 120.00 106.00 L 116.00 113.00 L 117.00 114.00 L 152.00 114.00 L 153.00 115.00 L 153.00 183.00 L 176.00 183.00 L 176.00 109.00 L 174.00 104.00 L 169.00 99.00 L 164.00 97.00 L 135.00 97.00 Z M 600.00 61.00 L 600.00 183.00 L 623.00 183.00 L 623.00 61.00 Z M 562.00 61.00 L 562.00 85.00 L 585.00 85.00 L 585.00 61.00 Z M 88.00 59.00 L 88.00 183.00 L 111.00 183.00 L 111.00 59.00 Z M 94.00 2.00 L 93.00 3.00 L 86.00 4.00 L 85.00 5.00 L 74.00 8.00 L 56.00 17.00 L 41.00 28.00 L 29.00 40.00 L 16.00 58.00 L 9.00 72.00 L 9.00 74.00 L 7.00 77.00 L 7.00 79.00 L 5.00 83.00 L 5.00 86.00 L 4.00 87.00 L 4.00 90.00 L 2.00 95.00 L 2.00 99.00 L 1.00 100.00 L 1.00 108.00 L 0.00 109.00 L 0.00 130.00 L 1.00 131.00 L 1.00 138.00 L 2.00 139.00 L 3.00 148.00 L 4.00 149.00 L 5.00 155.00 L 6.00 156.00 L 7.00 161.00 L 9.00 164.00 L 9.00 166.00 L 16.00 180.00 L 24.00 192.00 L 51.00 220.00 L 68.00 232.00 L 80.00 238.00 L 82.00 238.00 L 85.00 240.00 L 87.00 240.00 L 94.00 243.00 L 102.00 244.00 L 103.00 245.00 L 107.00 245.00 L 108.00 246.00 L 115.00 246.00 L 116.00 247.00 L 135.00 247.00 L 136.00 246.00 L 149.00 245.00 L 150.00 244.00 L 157.00 243.00 L 158.00 242.00 L 169.00 239.00 L 185.00 231.00 L 198.00 222.00 L 203.00 217.00 L 204.00 217.00 L 217.00 203.00 L 230.00 183.00 L 262.00 183.00 L 270.00 180.00 L 275.00 175.00 L 278.00 168.00 L 278.00 112.00 L 277.00 111.00 L 276.00 106.00 L 273.00 102.00 L 269.00 99.00 L 264.00 97.00 L 239.00 97.00 L 238.00 96.00 L 238.00 93.00 L 237.00 92.00 L 235.00 84.00 L 232.00 79.00 L 232.00 77.00 L 225.00 64.00 L 218.00 54.00 L 193.00 28.00 L 192.00 28.00 L 184.00 21.00 L 178.00 17.00 L 173.00 15.00 L 171.00 13.00 L 167.00 11.00 L 165.00 11.00 L 160.00 8.00 L 158.00 8.00 L 148.00 4.00 L 145.00 4.00 L 140.00 2.00 L 135.00 2.00 L 134.00 1.00 L 127.00 1.00 L 126.00 0.00 L 108.00 0.00 L 107.00 1.00 Z M 214.00 113.00 L 254.00 113.00 L 255.00 114.00 L 255.00 165.00 L 254.00 166.00 L 214.00 166.00 L 213.00 165.00 L 213.00 114.00 Z M 116.00 8.00 L 135.00 8.00 L 136.00 9.00 L 143.00 9.00 L 144.00 10.00 L 149.00 10.00 L 150.00 11.00 L 157.00 12.00 L 158.00 13.00 L 169.00 16.00 L 185.00 24.00 L 194.00 30.00 L 210.00 45.00 L 219.00 58.00 L 229.00 80.00 L 230.00 86.00 L 232.00 90.00 L 232.00 94.00 L 233.00 95.00 L 232.00 97.00 L 204.00 97.00 L 203.00 98.00 L 201.00 98.00 L 197.00 100.00 L 193.00 104.00 L 190.00 110.00 L 190.00 169.00 L 192.00 174.00 L 198.00 180.00 L 206.00 183.00 L 215.00 183.00 L 216.00 184.00 L 213.00 189.00 L 205.00 198.00 L 205.00 199.00 L 193.00 211.00 L 173.00 225.00 L 152.00 234.00 L 149.00 234.00 L 148.00 235.00 L 141.00 236.00 L 140.00 237.00 L 136.00 237.00 L 135.00 238.00 L 128.00 238.00 L 127.00 239.00 L 107.00 239.00 L 106.00 238.00 L 99.00 238.00 L 98.00 237.00 L 94.00 237.00 L 93.00 236.00 L 89.00 236.00 L 85.00 234.00 L 82.00 234.00 L 81.00 233.00 L 76.00 232.00 L 73.00 230.00 L 71.00 230.00 L 59.00 224.00 L 47.00 216.00 L 31.00 200.00 L 25.00 191.00 L 24.00 188.00 L 22.00 186.00 L 18.00 178.00 L 16.00 171.00 L 14.00 168.00 L 14.00 165.00 L 12.00 161.00 L 12.00 158.00 L 10.00 153.00 L 10.00 149.00 L 9.00 148.00 L 9.00 142.00 L 8.00 141.00 L 8.00 115.00 L 9.00 114.00 L 9.00 108.00 L 10.00 107.00 L 10.00 103.00 L 11.00 102.00 L 12.00 95.00 L 13.00 94.00 L 16.00 83.00 L 19.00 78.00 L 19.00 76.00 L 21.00 72.00 L 35.00 51.00 L 51.00 35.00 L 68.00 23.00 L 80.00 17.00 L 82.00 17.00 L 85.00 15.00 L 87.00 15.00 L 94.00 12.00 L 102.00 11.00 L 103.00 10.00 L 107.00 10.00 L 108.00 9.00 L 115.00 9.00 Z" fill="#FFFFFF" fill-rule="evenodd"/>
  </g>
</svg>
